<?xml version="1.0" encoding="UTF-8" standalone="no" ?>
<!DOCTYPE svg PUBLIC "-//W3C//DTD SVG 1.1//EN" "http://www.w3.org/Graphics/SVG/1.1/DTD/svg11.dtd">
<svg xmlns="http://www.w3.org/2000/svg" xmlns:xlink="http://www.w3.org/1999/xlink" version="1.1" width="400" height="400" viewBox="0 0 400 400" xml:space="preserve">
<desc>Created with Fabric.js 3.6.2</desc>
<defs>
</defs>
<g transform="matrix(0.78 0 0 0.78 191.34 191.2)" id="Layer_2"  >
<path style="stroke: none; stroke-width: 1; stroke-dasharray: none; stroke-linecap: butt; stroke-dashoffset: 0; stroke-linejoin: miter; stroke-miterlimit: 4; fill: rgb(203,236,249); fill-rule: nonzero; opacity: 1;"  transform=" translate(-116.92, -116.74)" d="M 156 73.48 h 28.74 V 188.74 a 12 12 0 0 1 -12 12 H 61.09 a 12 12 0 0 1 -12 -12 v -144 a 12 12 0 0 1 12 -12 h 83 V 61.48 A 12 12 0 0 0 156 73.48 Z" stroke-linecap="round" />
</g>
<g transform="matrix(0.78 0 0 0.78 191.34 186.29)" id="Layer_2"  >
<path style="stroke: none; stroke-width: 1; stroke-dasharray: none; stroke-linecap: butt; stroke-dashoffset: 0; stroke-linejoin: miter; stroke-miterlimit: 4; fill: rgb(255,255,255); fill-rule: nonzero; opacity: 1;"  transform=" translate(-116.92, -110.45)" d="M 156 73.48 h 28.74 V 176.17 a 12 12 0 0 1 -12 12 H 61.09 a 12 12 0 0 1 -12 -12 V 44.74 a 12 12 0 0 1 12 -12 h 83 V 61.48 A 12 12 0 0 0 156 73.48 Z" stroke-linecap="round" />
</g>
<g transform="matrix(0 0.78 -0.78 0 191.36 167.39)" id="Layer_2"  >
<rect style="stroke: none; stroke-width: 1; stroke-dasharray: none; stroke-linecap: butt; stroke-dashoffset: 0; stroke-linejoin: miter; stroke-miterlimit: 4; fill: rgb(144,252,149); fill-rule: nonzero; opacity: 1;"  x="-7.045" y="-45.82" rx="7.04" ry="7.04" width="14.09" height="91.64" />
</g>
<g transform="matrix(0 0.78 -0.78 0 179.2 183.27)" id="Layer_2"  >
<rect style="stroke: none; stroke-width: 1; stroke-dasharray: none; stroke-linecap: butt; stroke-dashoffset: 0; stroke-linejoin: miter; stroke-miterlimit: 4; fill: rgb(144,252,149); fill-rule: nonzero; opacity: 1;"  x="-7.045" y="-30.255" rx="7.04" ry="7.04" width="14.09" height="60.51" />
</g>
<g transform="matrix(0 0.78 -0.78 0 174.66 199.14)" id="Layer_2"  >
<rect style="stroke: none; stroke-width: 1; stroke-dasharray: none; stroke-linecap: butt; stroke-dashoffset: 0; stroke-linejoin: miter; stroke-miterlimit: 4; fill: rgb(144,252,149); fill-rule: nonzero; opacity: 1;"  x="-7.045" y="-24.445" rx="7.04" ry="7.04" width="14.09" height="48.89" />
</g>
<g transform="matrix(0 0.78 -0.78 0 187.86 215.02)" id="Layer_2"  >
<rect style="stroke: none; stroke-width: 1; stroke-dasharray: none; stroke-linecap: butt; stroke-dashoffset: 0; stroke-linejoin: miter; stroke-miterlimit: 4; fill: rgb(144,252,149); fill-rule: nonzero; opacity: 1;"  x="-7.045" y="-41.335" rx="7.04" ry="7.04" width="14.09" height="82.67" />
</g>
<g transform="matrix(0.78 0 0 0.78 228.43 147.68)" id="Layer_2"  >
<path style="stroke: none; stroke-width: 1; stroke-dasharray: none; stroke-linecap: butt; stroke-dashoffset: 0; stroke-linejoin: miter; stroke-miterlimit: 4; fill: rgb(203,236,249); fill-rule: nonzero; opacity: 1;"  transform=" translate(-164.39, -61.03)" d="M 184.79 81.4 H 156 a 12 12 0 0 1 -12 -12 V 40.66 l 40.74 32.82 Z" stroke-linecap="round" />
</g>
<g transform="matrix(0.78 0 0 0.78 191.38 191.2)" id="Layer_2"  >
<path style="stroke: none; stroke-width: 1; stroke-dasharray: none; stroke-linecap: butt; stroke-dashoffset: 0; stroke-linejoin: miter; stroke-miterlimit: 4; fill: rgb(47,177,234); fill-rule: nonzero; opacity: 1;"  transform=" translate(-116.96, -116.74)" d="M 172.79 202.74 H 61.09 a 14 14 0 0 1 -14 -14 v -144 a 14 14 0 0 1 14 -14 h 83 a 2 2 0 0 1 2 2 V 61.48 a 10 10 0 0 0 10 10 h 28.74 a 2 2 0 0 1 2 2 V 188.74 A 14 14 0 0 1 172.79 202.74 Z m -111.7 -168 a 10 10 0 0 0 -10 10 v 144 a 10 10 0 0 0 10 10 h 111.7 a 10 10 0 0 0 10 -10 V 75.48 H 156 a 14 14 0 0 1 -14 -14 V 34.74 Z" stroke-linecap="round" />
</g>
<g transform="matrix(0.78 0 0 0.78 228.43 141.49)" id="Layer_2"  >
<path style="stroke: none; stroke-width: 1; stroke-dasharray: none; stroke-linecap: butt; stroke-dashoffset: 0; stroke-linejoin: miter; stroke-miterlimit: 4; fill: rgb(229,245,252); fill-rule: nonzero; opacity: 1;"  transform=" translate(-164.39, -53.11)" d="M 184.79 73.48 H 156 a 12 12 0 0 1 -12 -12 V 32.74 Z" stroke-linecap="round" />
</g>
<g transform="matrix(0.78 0 0 0.78 228.43 141.5)" id="Layer_2"  >
<path style="stroke: none; stroke-width: 1; stroke-dasharray: none; stroke-linecap: butt; stroke-dashoffset: 0; stroke-linejoin: miter; stroke-miterlimit: 4; fill: rgb(47,177,234); fill-rule: nonzero; opacity: 1;"  transform=" translate(-164.39, -53.11)" d="M 184.79 75.48 H 156 a 14 14 0 0 1 -14 -14 V 32.74 a 2 2 0 0 1 3.41 -1.41 L 186.2 72.07 a 2 2 0 0 1 -1.41 3.41 Z M 146 37.57 V 61.48 a 10 10 0 0 0 10 10 H 180 Z" stroke-linecap="round" />
</g>
<g transform="matrix(0.78 0 0 0.78 242.32 255.08)" id="Layer_2"  >
<path style="stroke: none; stroke-width: 1; stroke-dasharray: none; stroke-linecap: butt; stroke-dashoffset: 0; stroke-linejoin: miter; stroke-miterlimit: 4; fill: rgb(47,177,234); fill-rule: nonzero; opacity: 1;"  transform=" translate(-182.17, -198.5)" d="M 198.67 223.5 L 157.18 182 a 6 6 0 0 1 8.49 -8.49 L 207.16 215 a 6 6 0 0 1 -8.49 8.49 Z" stroke-linecap="round" />
</g>
<g transform="matrix(0.78 0 0 0.78 228.08 240.86)" id="Layer_2"  >
<path style="stroke: none; stroke-width: 1; stroke-dasharray: none; stroke-linecap: butt; stroke-dashoffset: 0; stroke-linejoin: miter; stroke-miterlimit: 4; fill: rgb(26,150,226); fill-rule: nonzero; opacity: 1;"  transform=" translate(-163.95, -180.3)" d="M 172.48 180.34 l -6.82 -6.82 a 6 6 0 0 0 -8.49 8.49 l 6.82 6.82 A 52.44 52.44 0 0 0 172.48 180.34 Z" stroke-linecap="round" />
</g>
<g transform="matrix(0.78 0 0 0.78 202.92 215.69)" id="Layer_2"  >
<circle style="stroke: none; stroke-width: 1; stroke-dasharray: none; stroke-linecap: butt; stroke-dashoffset: 0; stroke-linejoin: miter; stroke-miterlimit: 4; fill: rgb(255,196,68); fill-rule: nonzero; opacity: 1;"  cx="0" cy="0" r="42" />
</g>
<g transform="matrix(0.78 0 0 0.78 202.92 213.1)" id="Layer_2"  >
<circle style="stroke: none; stroke-width: 1; stroke-dasharray: none; stroke-linecap: butt; stroke-dashoffset: 0; stroke-linejoin: miter; stroke-miterlimit: 4; fill: rgb(255,231,110); fill-rule: nonzero; opacity: 1;"  cx="0" cy="0" r="38.69" />
</g>
<g transform="matrix(0.78 0 0 0.78 202.92 215.69)" id="Layer_2"  >
<path style="stroke: none; stroke-width: 1; stroke-dasharray: none; stroke-linecap: butt; stroke-dashoffset: 0; stroke-linejoin: miter; stroke-miterlimit: 4; fill: rgb(47,177,234); fill-rule: nonzero; opacity: 1;"  transform=" translate(-131.74, -148.08)" d="M 131.74 192.08 a 44 44 0 1 1 44 -44 A 44 44 0 0 1 131.74 192.08 Z m 0 -84 a 40 40 0 1 0 40 40 A 40 40 0 0 0 131.74 108.08 Z" stroke-linecap="round" />
</g>
<g transform="matrix(0.78 0 0 0.78 202.92 213.67)" id="Layer_2"  >
<circle style="stroke: none; stroke-width: 1; stroke-dasharray: none; stroke-linecap: butt; stroke-dashoffset: 0; stroke-linejoin: miter; stroke-miterlimit: 4; fill: rgb(255,196,68); fill-rule: nonzero; opacity: 1;"  cx="0" cy="0" r="32.87" />
</g>
<g transform="matrix(0.78 0 0 0.78 202.92 215.69)" id="Layer_2"  >
<circle style="stroke: none; stroke-width: 1; stroke-dasharray: none; stroke-linecap: butt; stroke-dashoffset: 0; stroke-linejoin: miter; stroke-miterlimit: 4; fill: rgb(255,255,255); fill-rule: nonzero; opacity: 1;"  cx="0" cy="0" r="30.29" />
</g>
<g transform="matrix(0.78 0 0 0.78 187.77 200.64)" id="Layer_2"  >
<path style="stroke: none; stroke-width: 1; stroke-dasharray: none; stroke-linecap: butt; stroke-dashoffset: 0; stroke-linejoin: miter; stroke-miterlimit: 4; fill: rgb(144,252,149); fill-rule: nonzero; opacity: 1;"  transform=" translate(-112.35, -128.82)" d="M 121.05 127.35 a 9.39 9.39 0 0 0 -2.6 -6.49 a 30.39 30.39 0 0 0 -14.81 15.93 h 8 A 9.43 9.43 0 0 0 121.05 127.35 Z" stroke-linecap="round" />
</g>
<g transform="matrix(0.78 0 0 0.78 202.93 220.75)" id="Layer_2"  >
<path style="stroke: none; stroke-width: 1; stroke-dasharray: none; stroke-linecap: butt; stroke-dashoffset: 0; stroke-linejoin: miter; stroke-miterlimit: 4; fill: rgb(144,252,149); fill-rule: nonzero; opacity: 1;"  transform=" translate(-131.75, -154.56)" d="M 162 146.66 a 9.38 9.38 0 0 0 -5.14 -1.53 H 101.59 c -0.09 1 -0.14 2 -0.14 2.95 A 30.14 30.14 0 0 0 106 164 h 50.88 c 0.23 0 0.45 0 0.67 0 a 30.14 30.14 0 0 0 4.5 -15.89 C 162 147.6 162 147.13 162 146.66 Z" stroke-linecap="round" />
</g>
<g transform="matrix(0.78 0 0 0.78 202.9 215.69)" id="Layer_2"  >
<path style="stroke: none; stroke-width: 1; stroke-dasharray: none; stroke-linecap: butt; stroke-dashoffset: 0; stroke-linejoin: miter; stroke-miterlimit: 4; fill: rgb(47,177,234); fill-rule: nonzero; opacity: 1;"  transform=" translate(-131.71, -148.08)" d="M 131.74 180.37 A 32.29 32.29 0 1 1 164 148.08 A 32.32 32.32 0 0 1 131.74 180.37 Z m 0 -60.58 A 28.29 28.29 0 1 0 160 148.08 A 28.32 28.32 0 0 0 131.74 119.79 Z" stroke-linecap="round" />
</g>
<g transform="matrix(0.78 0 0 0.78 251.56 134.38)" id="Layer_2"  >
<circle style="stroke: none; stroke-width: 1; stroke-dasharray: none; stroke-linecap: butt; stroke-dashoffset: 0; stroke-linejoin: miter; stroke-miterlimit: 4; fill: rgb(212,255,212); fill-rule: nonzero; opacity: 1;"  cx="0" cy="0" r="5" />
</g>
<g transform="matrix(0.78 0 0 0.78 130.47 210.94)" id="Layer_2"  >
<circle style="stroke: none; stroke-width: 1; stroke-dasharray: none; stroke-linecap: butt; stroke-dashoffset: 0; stroke-linejoin: miter; stroke-miterlimit: 4; fill: rgb(212,255,212); fill-rule: nonzero; opacity: 1;"  cx="0" cy="0" r="4" />
</g>
<g transform="matrix(0.78 0 0 0.78 125.78 136.72)" id="Layer_2"  >
<circle style="stroke: none; stroke-width: 1; stroke-dasharray: none; stroke-linecap: butt; stroke-dashoffset: 0; stroke-linejoin: miter; stroke-miterlimit: 4; fill: rgb(212,255,212); fill-rule: nonzero; opacity: 1;"  cx="0" cy="0" r="3" />
</g>
<g transform="matrix(0.78 0 0 0.78 257.81 183.59)" id="Layer_2"  >
<circle style="stroke: none; stroke-width: 1; stroke-dasharray: none; stroke-linecap: butt; stroke-dashoffset: 0; stroke-linejoin: miter; stroke-miterlimit: 4; fill: rgb(212,255,212); fill-rule: nonzero; opacity: 1;"  cx="0" cy="0" r="2" />
</g>
<g transform="matrix(0.78 0 0 0.78 278.91 277.34)" id="Layer_2"  >
<circle style="stroke: none; stroke-width: 1; stroke-dasharray: none; stroke-linecap: butt; stroke-dashoffset: 0; stroke-linejoin: miter; stroke-miterlimit: 4; fill: rgb(212,255,212); fill-rule: nonzero; opacity: 1;"  cx="0" cy="0" r="1" />
</g>
<g transform="matrix(0.78 0 0 0.78 267.97 294.53)" id="Layer_2"  >
<circle style="stroke: none; stroke-width: 1; stroke-dasharray: none; stroke-linecap: butt; stroke-dashoffset: 0; stroke-linejoin: miter; stroke-miterlimit: 4; fill: rgb(255,189,189); fill-rule: nonzero; opacity: 1;"  cx="0" cy="0" r="5" />
</g>
<g transform="matrix(0.78 0 0 0.78 261.72 239.84)" id="Layer_2"  >
<circle style="stroke: none; stroke-width: 1; stroke-dasharray: none; stroke-linecap: butt; stroke-dashoffset: 0; stroke-linejoin: miter; stroke-miterlimit: 4; fill: rgb(255,189,189); fill-rule: nonzero; opacity: 1;"  cx="0" cy="0" r="4" />
</g>
<g transform="matrix(0.78 0 0 0.78 153.13 285.16)" id="Layer_2"  >
<circle style="stroke: none; stroke-width: 1; stroke-dasharray: none; stroke-linecap: butt; stroke-dashoffset: 0; stroke-linejoin: miter; stroke-miterlimit: 4; fill: rgb(255,189,189); fill-rule: nonzero; opacity: 1;"  cx="0" cy="0" r="3" />
</g>
<g transform="matrix(0.78 0 0 0.78 260.94 114.06)" id="Layer_2"  >
<circle style="stroke: none; stroke-width: 1; stroke-dasharray: none; stroke-linecap: butt; stroke-dashoffset: 0; stroke-linejoin: miter; stroke-miterlimit: 4; fill: rgb(255,189,189); fill-rule: nonzero; opacity: 1;"  cx="0" cy="0" r="2" />
</g>
<g transform="matrix(0.78 0 0 0.78 185.94 114.84)" id="Layer_2"  >
<circle style="stroke: none; stroke-width: 1; stroke-dasharray: none; stroke-linecap: butt; stroke-dashoffset: 0; stroke-linejoin: miter; stroke-miterlimit: 4; fill: rgb(255,189,189); fill-rule: nonzero; opacity: 1;"  cx="0" cy="0" r="1" />
</g>
<g transform="matrix(0.78 0 0 0.78 121.88 182.03)" id="Layer_2"  >
<circle style="stroke: none; stroke-width: 1; stroke-dasharray: none; stroke-linecap: butt; stroke-dashoffset: 0; stroke-linejoin: miter; stroke-miterlimit: 4; fill: rgb(187,241,255); fill-rule: nonzero; opacity: 1;"  cx="0" cy="0" r="5" />
</g>
<g transform="matrix(0.78 0 0 0.78 192.19 290.63)" id="Layer_2"  >
<circle style="stroke: none; stroke-width: 1; stroke-dasharray: none; stroke-linecap: butt; stroke-dashoffset: 0; stroke-linejoin: miter; stroke-miterlimit: 4; fill: rgb(187,241,255); fill-rule: nonzero; opacity: 1;"  cx="0" cy="0" r="4" />
</g>
<g transform="matrix(0.78 0 0 0.78 267.97 197.66)" id="Layer_2"  >
<circle style="stroke: none; stroke-width: 1; stroke-dasharray: none; stroke-linecap: butt; stroke-dashoffset: 0; stroke-linejoin: miter; stroke-miterlimit: 4; fill: rgb(187,241,255); fill-rule: nonzero; opacity: 1;"  cx="0" cy="0" r="3" />
</g>
<g transform="matrix(0.78 0 0 0.78 256.25 162.5)" id="Layer_2"  >
<circle style="stroke: none; stroke-width: 1; stroke-dasharray: none; stroke-linecap: butt; stroke-dashoffset: 0; stroke-linejoin: miter; stroke-miterlimit: 4; fill: rgb(187,241,255); fill-rule: nonzero; opacity: 1;"  cx="0" cy="0" r="2" />
</g>
<g transform="matrix(0.78 0 0 0.78 124.22 266.41)" id="Layer_2"  >
<circle style="stroke: none; stroke-width: 1; stroke-dasharray: none; stroke-linecap: butt; stroke-dashoffset: 0; stroke-linejoin: miter; stroke-miterlimit: 4; fill: rgb(187,241,255); fill-rule: nonzero; opacity: 1;"  cx="0" cy="0" r="1" />
</g>
<g transform="matrix(0.78 0 0 0.78 144.53 105.47)" id="Layer_2"  >
<circle style="stroke: none; stroke-width: 1; stroke-dasharray: none; stroke-linecap: butt; stroke-dashoffset: 0; stroke-linejoin: miter; stroke-miterlimit: 4; fill: rgb(255,244,197); fill-rule: nonzero; opacity: 1;"  cx="0" cy="0" r="5" />
</g>
<g transform="matrix(0.78 0 0 0.78 232.81 116.41)" id="Layer_2"  >
<circle style="stroke: none; stroke-width: 1; stroke-dasharray: none; stroke-linecap: butt; stroke-dashoffset: 0; stroke-linejoin: miter; stroke-miterlimit: 4; fill: rgb(255,244,197); fill-rule: nonzero; opacity: 1;"  cx="0" cy="0" r="4" />
</g>
<g transform="matrix(0.78 0 0 0.78 125.78 237.5)" id="Layer_2"  >
<circle style="stroke: none; stroke-width: 1; stroke-dasharray: none; stroke-linecap: butt; stroke-dashoffset: 0; stroke-linejoin: miter; stroke-miterlimit: 4; fill: rgb(255,244,197); fill-rule: nonzero; opacity: 1;"  cx="0" cy="0" r="3" />
</g>
<g transform="matrix(0.78 0 0 0.78 134.38 162.5)" id="Layer_2"  >
<circle style="stroke: none; stroke-width: 1; stroke-dasharray: none; stroke-linecap: butt; stroke-dashoffset: 0; stroke-linejoin: miter; stroke-miterlimit: 4; fill: rgb(255,244,197); fill-rule: nonzero; opacity: 1;"  cx="0" cy="0" r="2" />
</g>
<g transform="matrix(0.78 0 0 0.78 281.25 223.44)" id="Layer_2"  >
<circle style="stroke: none; stroke-width: 1; stroke-dasharray: none; stroke-linecap: butt; stroke-dashoffset: 0; stroke-linejoin: miter; stroke-miterlimit: 4; fill: rgb(255,244,197); fill-rule: nonzero; opacity: 1;"  cx="0" cy="0" r="1" />
</g>
</svg>